HIERARCHY
ROOT Hips
{
	OFFSET 0.000000 0.000000 0.000000
	CHANNELS 6 Xposition Yposition Zposition Zrotation Yrotation Xrotation 
	JOINT LHipJoint
	{
		OFFSET 0.000000 0.000000 0.000000
		CHANNELS 3 Zrotation Yrotation Xrotation
		JOINT LeftUpLeg
		{
			OFFSET 1.363060 -1.794630 0.839290
			CHANNELS 3 Zrotation Yrotation Xrotation
			JOINT LeftLeg
			{
				OFFSET 2.448110 -6.726130 0.000000
				CHANNELS 3 Zrotation Yrotation Xrotation
				JOINT LeftFoot
				{
					OFFSET 2.562200 -7.039590 0.000000
					CHANNELS 3 Zrotation Yrotation Xrotation
					JOINT LeftToeBase
					{
						OFFSET 0.157640 -0.433110 2.322550
						CHANNELS 3 Zrotation Yrotation Xrotation
						End Site
						{
							OFFSET 0.000000 0.000000 0.000000
						}
					}
				}
			}
		}
	}
	JOINT RHipJoint
	{
		OFFSET 0.000000 0.000000 0.000000
		CHANNELS 3 Zrotation Yrotation Xrotation
		JOINT RightUpLeg
		{
			OFFSET -1.305520 -1.794630 0.839290
			CHANNELS 3 Zrotation Yrotation Xrotation
			JOINT RightLeg
			{
				OFFSET -2.542530 -6.985550 0.000000
				CHANNELS 3 Zrotation Yrotation Xrotation
				JOINT RightFoot
				{
					OFFSET -2.568260 -7.056230 0.000000
					CHANNELS 3 Zrotation Yrotation Xrotation
					JOINT RightToeBase
					{
						OFFSET -0.164730 -0.452590 2.363150
						CHANNELS 3 Zrotation Yrotation Xrotation
						End Site
						{
							OFFSET 0.000000 0.000000 0.000000
						}
					}
				}
			}
		}
	}
	JOINT LowerBack
	{
		OFFSET 0.000000 0.000000 0.000000
		CHANNELS 3 Zrotation Yrotation Xrotation
		JOINT Spine
		{
			OFFSET 0.028270 2.035590 -0.193380
			CHANNELS 3 Zrotation Yrotation Xrotation
			JOINT Spine1
			{
				OFFSET 0.056720 2.048850 -0.042750
				CHANNELS 3 Zrotation Yrotation Xrotation
				JOINT Neck
				{
					OFFSET 0.000000 0.000000 0.000000
					CHANNELS 3 Zrotation Yrotation Xrotation
					JOINT Neck1
					{
						OFFSET -0.054170 1.746240 0.172020
						CHANNELS 3 Zrotation Yrotation Xrotation
						JOINT Head
						{
							OFFSET 0.104070 1.761360 -0.123970
							CHANNELS 3 Zrotation Yrotation Xrotation
							End Site
							{
								OFFSET 0.000000 0.000000 0.000000
							}
						}
					}
				}
				JOINT LeftShoulder
				{
					OFFSET 0.000000 0.000000 0.000000
					CHANNELS 3 Zrotation Yrotation Xrotation
					JOINT LeftArm
					{
						OFFSET 3.362410 1.200890 -0.311210
						CHANNELS 3 Zrotation Yrotation Xrotation
						JOINT LeftForeArm
						{
							OFFSET 4.983000 -0.000000 -0.000000
							CHANNELS 3 Zrotation Yrotation Xrotation
							JOINT LeftHand
							{
								OFFSET 3.483560 -0.000000 -0.000000
								CHANNELS 3 Zrotation Yrotation Xrotation
								JOINT LeftFingerBase
								{
									OFFSET 0.000000 0.000000 0.000000
									CHANNELS 3 Zrotation Yrotation Xrotation
									JOINT LeftHandIndex1
									{
										OFFSET 0.715260 -0.000000 -0.000000
										CHANNELS 3 Zrotation Yrotation Xrotation
										End Site
										{
											OFFSET 0.000000 0.000000 0.000000
										}
									}
								}
								JOINT LThumb
								{
									OFFSET 0.000000 0.000000 0.000000
									CHANNELS 3 Zrotation Yrotation Xrotation
									End Site
									{
										OFFSET 0.000000 0.000000 0.000000
									}
								}
							}
						}
					}
				}
				JOINT RightShoulder
				{
					OFFSET 0.000000 0.000000 0.000000
					CHANNELS 3 Zrotation Yrotation Xrotation
					JOINT RightArm
					{
						OFFSET -3.136600 1.374050 -0.404650
						CHANNELS 3 Zrotation Yrotation Xrotation
						JOINT RightForeArm
						{
							OFFSET -5.241900 -0.000000 -0.000000
							CHANNELS 3 Zrotation Yrotation Xrotation
							JOINT RightHand
							{
								OFFSET -3.444170 -0.000000 -0.000000
								CHANNELS 3 Zrotation Yrotation Xrotation
								JOINT RightFingerBase
								{
									OFFSET 0.000000 0.000000 0.000000
									CHANNELS 3 Zrotation Yrotation Xrotation
									JOINT RightHandIndex1
									{
										OFFSET -0.622530 -0.000000 -0.000000
										CHANNELS 3 Zrotation Yrotation Xrotation
										End Site
										{
											OFFSET 0.000000 0.000000 0.000000
										}
									}
								}
								JOINT RThumb
								{
									OFFSET 0.000000 0.000000 0.000000
									CHANNELS 3 Zrotation Yrotation Xrotation
									End Site
									{
										OFFSET 0.000000 0.000000 0.000000
									}
								}
							}
						}
					}
				}
			}
		}
	}
}
MOTION
Frames: 4
Frame Time: 0.008333
-6.107036 17.653943 37.261302 -156.180029 -79.047415 167.821139 -0.797793 -2.671952 -1.661661 -8.434210 -2.212165 -10.839223 -2.250264 5.127847 11.717387 0.460007 2.454226 6.152853 1.958900 -8.780000 -25.109400 -3.404429 3.005375 -3.921265 25.256821 -6.476465 -10.390527 1.742280 -4.710071 9.758215 -3.791247 15.494754 7.106403 -0.279500 3.400400 -9.395500 3.354008 3.132428 -5.628328 1.126903 3.663714 -3.704867 1.198515 1.704753 -7.507590 -21.677426 -7.883070 10.066696 16.207105 -26.720764 4.389963 25.153900 -14.628000 5.293800 -8.952209 -9.657911 1.997853 -80.123812 8.969146 34.185055 17.904325 -24.526914 -5.184089 1.228051 -1.472883 -46.559220 -12.809634 5.804665 -1.729500 -7.125000 0.000000 0.000000 -32.060100 35.858100 8.313200 5.128514 4.148645 0.406273 76.858730 -6.449841 46.121500 -12.341568 21.894278 -2.820665 -0.403228 0.501585 22.727077 -9.182359 4.131864 -0.579600 7.125000 0.000000 0.000000 13.563600 -26.061500 6.395500 
-6.107469 17.653510 37.254588 -156.478990 -79.076984 168.094319 -0.805311 -2.675343 -1.659915 -8.477321 -2.218397 -10.799445 -2.253573 5.119890 11.694839 0.453427 2.473297 6.148186 1.958600 -8.779300 -25.107300 -3.408347 3.001898 -3.921167 25.197745 -6.488421 -10.443245 1.735057 -4.763092 9.901086 -3.797521 15.545950 7.094688 -0.261300 3.288700 -9.083600 3.208333 3.120877 -5.613643 1.155702 3.650827 -3.704011 1.370949 1.724526 -7.530306 -21.766929 -7.889660 10.102402 16.226855 -26.755837 4.333419 25.202200 -14.626000 5.272100 -8.950581 -9.647405 1.986492 -80.214533 9.043491 34.423838 17.696032 -24.285148 -5.050892 1.250985 -1.376911 -46.225211 -12.807365 3.939096 -1.313900 -7.125000 0.000000 0.000000 -31.438500 34.173000 9.627100 5.149445 4.154169 0.413551 76.710431 -6.465706 46.044495 -12.313567 21.863305 -2.814797 -0.404875 0.502701 22.827445 -9.145555 4.186731 -0.585300 7.125000 0.000000 0.000000 13.586800 -26.007000 6.424900 
-6.105953 17.651561 37.248957 -156.097250 -79.093312 167.704799 -0.797546 -2.664625 -1.661458 -8.393890 -2.338501 -10.778151 -2.248028 5.140334 11.746555 0.411210 2.608506 6.101821 2.007100 -8.880900 -25.423400 -3.409095 3.007395 -3.923289 25.288260 -6.500509 -10.452188 1.733200 -4.782776 9.941498 -3.795770 15.537796 7.014505 -0.269700 3.340800 -9.229200 3.309687 3.136519 -5.592589 1.152913 3.663547 -3.704550 1.307636 1.720758 -7.546610 -21.722109 -7.912981 10.139472 16.256973 -26.795306 4.273879 25.232700 -14.631200 5.240000 -8.959958 -9.638099 1.987221 -80.174722 9.098359 34.685614 17.468963 -24.018496 -4.914534 1.273894 -1.274994 -45.894554 -12.752533 2.036417 -0.877300 -7.125000 0.000000 0.000000 -30.813100 32.445800 10.901100 5.151416 4.161141 0.417289 76.786242 -6.469025 45.864062 -12.274771 21.817468 -2.803711 -0.406887 0.500135 22.943621 -9.140240 4.266026 -0.597400 7.125000 0.000000 0.000000 13.582700 -25.924600 6.449900 
-6.104654 17.650370 37.241269 -155.932529 -79.107827 167.520723 -0.791933 -2.658890 -1.662334 -8.345305 -2.397128 -10.761067 -2.243282 5.156287 11.791496 0.399782 2.645398 6.095078 2.007300 -8.881300 -25.424800 -3.410971 3.009969 -3.925426 25.339185 -6.506372 -10.459590 1.731128 -4.805850 9.996869 -3.793486 15.522868 6.995929 -0.261900 3.292300 -9.093600 3.344701 3.140616 -5.578982 1.155177 3.665395 -3.700265 1.300745 1.721349 -7.543241 -21.753691 -7.903343 10.170123 16.294266 -26.823735 4.227011 25.316600 -14.641900 5.235200 -8.968575 -9.632467 1.986263 -80.148459 9.151616 34.961176 17.278636 -23.796768 -4.802119 1.291843 -1.179413 -45.639240 -12.640846 0.318011 -0.475800 -7.125000 0.000000 0.000000 -30.241000 30.878100 11.986200 5.151726 4.159662 0.417811 76.821420 -6.475250 45.841088 -12.272405 21.813582 -2.801503 -0.404108 0.499619 22.994230 -9.161937 4.187793 -0.587300 7.125000 0.000000 0.000000 13.573200 -26.001600 6.420000 
